<?xml version="1.0" encoding="UTF-8" standalone="no"?><!DOCTYPE svg PUBLIC "-//W3C//DTD SVG 1.1//EN" "http://www.w3.org/Graphics/SVG/1.1/DTD/svg11.dtd"><svg width="100%" height="100%" viewBox="0 0 2862 2862" version="1.1" xmlns="http://www.w3.org/2000/svg" xmlns:xlink="http://www.w3.org/1999/xlink" xml:space="preserve" xmlns:serif="http://www.serif.com/" style="fill-rule:evenodd;clip-rule:evenodd;stroke-linecap:round;stroke-linejoin:round;stroke-miterlimit:10;"><path d="M143.588,55l-88.588,88.588l0,2574.16l88.588,88.587l2574.16,0l88.5,-88.587l-2.053,-2574.16l-88.682,-88.587l-2571.92,0Z" style="fill:#fff;fill-rule:nonzero;stroke:#f26621;stroke-width:110px;"/><path d="M981.744,844.709c-57.841,0 -104.8,46.96 -104.8,104.8l-0,954.844c-0,57.841 46.959,104.8 104.8,104.8l954.84,0c57.841,0 104.8,-46.959 104.8,-104.8l0,-954.844c0,-57.84 -46.959,-104.8 -104.8,-104.8l-954.84,0Z" style="fill:none;stroke:#f26621;stroke-width:84.63px;stroke-linecap:square;stroke-miterlimit:1.5;"/><path d="M868.019,1428.67l-559.647,-0" style="fill:none;stroke:#f26621;stroke-width:84.63px;stroke-linejoin:miter;stroke-miterlimit:1.5;"/><path d="M1459.27,838.028l-0,-559.647" style="fill:none;stroke:#f26621;stroke-width:84.63px;stroke-linejoin:miter;stroke-miterlimit:1.5;"/><path d="M2049.29,1428.67l559.647,-0" style="fill:none;stroke:#f26621;stroke-width:84.63px;stroke-linejoin:miter;stroke-miterlimit:1.5;"/><path d="M1459.27,2019.3l-0,559.647" style="fill:none;stroke:#f26621;stroke-width:84.63px;stroke-linejoin:miter;stroke-miterlimit:1.5;"/><path d="M868.019,1709.69l-175.96,-0l-248.097,238.381" style="fill:none;stroke:#f26621;stroke-width:84.63px;stroke-miterlimit:1.5;"/><path d="M1178.24,838.028l-0,-175.962l-238.382,-248.094" style="fill:none;stroke:#f26621;stroke-width:84.63px;stroke-miterlimit:1.5;"/><path d="M2049.29,1148.63l175.959,0l248.097,-238.378" style="fill:none;stroke:#f26621;stroke-width:84.63px;stroke-miterlimit:1.5;"/><path d="M1739.29,2019.3l-0,175.962l238.381,248.097" style="fill:none;stroke:#f26621;stroke-width:84.63px;stroke-miterlimit:1.5;"/><path d="M868.019,1282.18l-175.96,0" style="fill:none;stroke:#f26621;stroke-width:84.63px;stroke-linejoin:miter;stroke-miterlimit:1.5;"/><path d="M1605.75,838.028l0,-175.962" style="fill:none;stroke:#f26621;stroke-width:84.63px;stroke-linejoin:miter;stroke-miterlimit:1.5;"/><path d="M2049.29,1570.39l175.959,-0" style="fill:none;stroke:#f26621;stroke-width:84.63px;stroke-linejoin:miter;stroke-miterlimit:1.5;"/><path d="M1317.54,2019.3l0,175.962" style="fill:none;stroke:#f26621;stroke-width:84.63px;stroke-linejoin:miter;stroke-miterlimit:1.5;"/><path d="M868.019,1148.63l-305.344,0" style="fill:none;stroke:#f26621;stroke-width:84.63px;stroke-linejoin:miter;stroke-miterlimit:1.5;"/><path d="M1739.29,838.028l-0,-305.344" style="fill:none;stroke:#f26621;stroke-width:84.63px;stroke-linejoin:miter;stroke-miterlimit:1.5;"/><path d="M2049.29,1709.79l305.343,-0" style="fill:none;stroke:#f26621;stroke-width:84.63px;stroke-linejoin:miter;stroke-miterlimit:1.5;"/><path d="M1178.14,2019.3l-0,305.344" style="fill:none;stroke:#f26621;stroke-width:84.63px;stroke-linejoin:miter;stroke-miterlimit:1.5;"/><path d="M410.988,1148.63c-0,-41.859 33.984,-75.843 75.843,-75.843c41.86,-0 75.844,33.984 75.844,75.843c0,41.86 -33.984,75.844 -75.844,75.844c-41.859,0 -75.844,-33.984 -75.844,-75.844Z" style="fill:none;stroke:#f26621;stroke-width:84.63px;stroke-linejoin:miter;stroke-miterlimit:1.5;"/><circle cx="1739.29" cy="456.841" r="75.844" style="fill:none;stroke:#f26621;stroke-width:84.63px;stroke-linejoin:miter;stroke-miterlimit:1.5;"/><path d="M2506.33,1709.79c-0,41.859 -33.984,75.843 -75.844,75.843c-41.859,0 -75.844,-33.984 -75.844,-75.843c0,-41.86 33.985,-75.844 75.844,-75.844c41.86,-0 75.844,33.984 75.844,75.844Z" style="fill:none;stroke:#f26621;stroke-width:84.63px;stroke-linejoin:miter;stroke-miterlimit:1.5;"/><circle cx="1178.14" cy="2400.49" r="75.844" style="fill:none;stroke:#f26621;stroke-width:84.63px;stroke-linejoin:miter;stroke-miterlimit:1.5;"/><path d="M308.372,1995.22c-0,-41.859 33.987,-75.844 75.847,-75.844c41.859,0 75.843,33.985 75.843,75.844c0,41.859 -33.984,75.847 -75.843,75.847c-41.86,-0 -75.847,-33.988 -75.847,-75.847Z" style="fill:none;stroke:#f26621;stroke-width:84.63px;stroke-linejoin:miter;stroke-miterlimit:1.5;"/><circle cx="892.706" cy="354.225" r="75.844" style="fill:none;stroke:#f26621;stroke-width:84.63px;stroke-linejoin:miter;stroke-miterlimit:1.5;"/><path d="M2608.94,837.891c-0,41.859 -33.988,75.843 -75.847,75.843c-41.86,0 -75.844,-33.984 -75.844,-75.843c0,-41.86 33.984,-75.847 75.844,-75.847c41.859,-0 75.847,33.987 75.847,75.847Z" style="fill:none;stroke:#f26621;stroke-width:84.63px;stroke-linejoin:miter;stroke-miterlimit:1.5;"/><circle cx="2050.04" cy="2503.1" r="75.844" style="fill:none;stroke:#f26621;stroke-width:84.63px;stroke-linejoin:miter;stroke-miterlimit:1.5;"/><path d="M868.019,1570.54l-175.96,-0" style="fill:none;stroke:#f26621;stroke-width:84.63px;stroke-linejoin:miter;stroke-miterlimit:1.5;"/><path d="M1317.39,838.028l-0,-175.962" style="fill:none;stroke:#f26621;stroke-width:84.63px;stroke-linejoin:miter;stroke-miterlimit:1.5;"/><path d="M2049.29,1282.1l175.959,0" style="fill:none;stroke:#f26621;stroke-width:84.63px;stroke-linejoin:miter;stroke-miterlimit:1.5;"/><path d="M1605.83,2019.3l0,175.962" style="fill:none;stroke:#f26621;stroke-width:84.63px;stroke-linejoin:miter;stroke-miterlimit:1.5;"/></svg>