<?xml version="1.0" encoding="UTF-8" standalone="no"?><!DOCTYPE svg PUBLIC "-//W3C//DTD SVG 1.1//EN" "http://www.w3.org/Graphics/SVG/1.1/DTD/svg11.dtd"><svg width="100%" height="100%" viewBox="0 0 2864 2865" version="1.1" xmlns="http://www.w3.org/2000/svg" xmlns:xlink="http://www.w3.org/1999/xlink" xml:space="preserve" xmlns:serif="http://www.serif.com/" style="fill-rule:evenodd;clip-rule:evenodd;stroke-linecap:round;stroke-linejoin:round;stroke-miterlimit:10;"><path d="M143.675,55l-88.675,88.675l-0,2576.67l88.675,88.678l2576.67,-0l88.587,-88.678l-2.056,-2576.67l-88.766,-88.675l-2574.44,-0Z" style="fill:#fff;fill-rule:nonzero;stroke:#f1ba1e;stroke-width:110px;"/><g><path d="M2501.83,1496.61l-640.894,510.278" style="fill:none;stroke:#f1ba1e;stroke-width:77.41px;stroke-linecap:square;stroke-linejoin:bevel;stroke-miterlimit:1.5;"/><path d="M362.441,1349.27l640.893,-510.278" style="fill:none;stroke:#f1ba1e;stroke-width:77.41px;stroke-linecap:square;stroke-linejoin:bevel;stroke-miterlimit:1.5;"/><path d="M2095.11,1465.29l-411.646,327.753" style="fill:none;stroke:#f1ba1e;stroke-width:77.41px;stroke-linecap:square;stroke-linejoin:bevel;stroke-miterlimit:1.5;"/><path d="M769.159,1380.58l411.647,-327.753" style="fill:none;stroke:#f1ba1e;stroke-width:77.41px;stroke-linecap:square;stroke-linejoin:bevel;stroke-miterlimit:1.5;"/><g><path d="M2568.78,1425.54c0,0 -257.887,849.794 -547.353,776.113c-183.615,-46.741 -589.462,-776.112 -589.462,-776.112" style="fill:none;stroke:#f1ba1e;stroke-width:110.03px;stroke-miterlimit:1.5;"/><path d="M2568.78,1425.54l-2273.63,0c-0,0 257.891,-849.79 547.356,-776.109c183.616,46.738 589.46,776.109 589.46,776.109" style="fill:none;stroke:#f1ba1e;stroke-width:110.03px;stroke-miterlimit:1.5;"/></g></g><path d="M1426.83,298.478l-0,2267.07" style="fill:none;stroke:#f1ba1e;stroke-width:109.87px;stroke-linecap:square;stroke-linejoin:bevel;stroke-miterlimit:1.5;"/></svg>